<?xml version="1.0" encoding="UTF-8"?>
<svg xmlns="http://www.w3.org/2000/svg" xmlns:xlink="http://www.w3.org/1999/xlink" width="212" height="260" viewBox="0 0 424 520" version="1.1">
<g id="surface1">
<path style=" stroke:none;fill-rule:nonzero;fill:rgb(85.490196%,88.235294%,89.803922%);fill-opacity:1;" d="M 135.117188 501.472656 L 135.117188 71.636719 C 135.117188 61.742188 141.660156 53.726562 149.722656 53.726562 L 291.171875 53.726562 L 279.679688 13.277344 C 277.589844 3.722656 269.589844 -1.945312 261.796875 0.613281 L 14.941406 69.59375 C 7.148438 72.15625 2.527344 81.96875 4.613281 91.523438 L 95.332031 506.722656 C 97.414062 516.277344 105.421875 521.945312 113.214844 519.382812 L 137.566406 511.378906 C 136.023438 508.539062 135.117188 505.136719 135.117188 501.472656 "/>
<path style=" stroke:none;fill-rule:nonzero;fill:rgb(84.313725%,11.764706%,0%);fill-opacity:1;" d="M 81.050781 336.328125 C 93.660156 393.128906 99.328125 418.765625 106.160156 450.054688 C 107.203125 454.828125 111.207031 457.667969 115.105469 456.386719 C 118.996094 455.105469 121.3125 450.199219 120.269531 445.417969 C 113.425781 414.101562 107.753906 388.445312 95.246094 332.082031 C 82.523438 274.796875 77.019531 249.894531 70.230469 218.820312 C 69.183594 214.046875 65.183594 211.207031 61.285156 212.488281 C 57.390625 213.769531 55.078125 218.675781 56.121094 223.460938 C 62.917969 254.578125 68.425781 279.492188 81.050781 336.328125 Z M 81.050781 336.328125 "/>
<path style=" stroke:none;fill-rule:nonzero;fill:rgb(84.313725%,11.764706%,0%);fill-opacity:1;" d="M 113.617188 144.269531 L 70.285156 84.34375 C 66.292969 78.820312 58.875 81.261719 57.667969 88.488281 L 44.578125 166.960938 C 43.765625 171.808594 46.316406 176.535156 50.265625 177.527344 C 54.214844 178.523438 58.070312 175.398438 58.882812 170.550781 L 62.058594 151.503906 C 62.476562 151.460938 62.875 151.550781 63.292969 151.40625 L 91.507812 142.136719 C 91.785156 142.050781 91.980469 141.816406 92.238281 141.691406 L 102.683594 156.144531 C 105.355469 159.84375 109.972656 160.183594 112.996094 156.90625 C 116.019531 153.628906 116.289062 147.96875 113.617188 144.269531 Z M 65.277344 132.21875 L 69.046875 109.625 L 81.523438 126.878906 Z M 65.277344 132.21875 "/>
<path style=" stroke:none;fill-rule:nonzero;fill:rgb(90.196078%,93.333333%,95.686275%);fill-opacity:1;" d="M 405.28125 53.726562 L 149.722656 53.726562 C 141.652344 53.726562 135.117188 61.742188 135.117188 71.636719 L 135.117188 501.472656 C 135.117188 511.371094 141.652344 519.382812 149.722656 519.382812 L 405.28125 519.382812 C 413.351562 519.382812 419.886719 511.371094 419.886719 501.472656 L 419.886719 71.636719 C 419.886719 61.742188 413.351562 53.726562 405.28125 53.726562 "/>
<path style=" stroke:none;fill-rule:nonzero;fill:rgb(0%,0%,0%);fill-opacity:1;" d="M 397.980469 89.546875 C 397.980469 84.605469 394.710938 80.59375 390.679688 80.59375 L 259.25 80.59375 C 255.21875 80.59375 251.949219 84.605469 251.949219 89.546875 C 251.949219 94.488281 255.21875 98.5 259.25 98.5 L 390.679688 98.5 L 383.378906 89.546875 L 383.378906 357.648438 C 383.378906 362.59375 386.648438 366.605469 390.679688 366.605469 C 394.710938 366.605469 397.980469 362.59375 397.980469 357.648438 Z M 397.980469 89.546875 "/>
<path style=" stroke:none;fill-rule:nonzero;fill:rgb(0%,0%,0%);fill-opacity:1;" d="M 157.023438 484.074219 C 157.023438 489.027344 160.300781 493.046875 164.347656 493.027344 L 310.382812 492.519531 C 314.414062 492.5 317.675781 488.480469 317.664062 483.535156 C 317.648438 478.59375 314.367188 474.589844 310.339844 474.609375 L 164.304688 475.117188 L 171.628906 484.074219 L 171.628906 215.425781 C 171.628906 210.484375 168.355469 206.472656 164.324219 206.472656 C 160.296875 206.472656 157.023438 210.484375 157.023438 215.425781 Z M 157.023438 484.074219 "/>
<path style=" stroke:none;fill-rule:nonzero;fill:rgb(0%,0%,0%);fill-opacity:1;" d="M 295.777344 349.535156 C 295.363281 349.203125 294.878906 349.707031 295.0625 350.277344 L 307.167969 388.292969 C 308.234375 390.917969 306.679688 394.015625 304.285156 394.015625 L 250.28125 394.015625 C 247.886719 394.015625 246.332031 390.917969 247.40625 388.292969 L 257.488281 350.191406 C 257.644531 349.617188 257.140625 349.160156 256.738281 349.492188 C 250.65625 354.53125 243.71875 358.320312 236.125 358.320312 C 212.570312 358.320312 192.132812 334.0625 193.605469 304.804688 C 194.4375 288.355469 202.976562 274.242188 214.359375 265.484375 C 225.777344 256.699219 235.175781 256 244.644531 258.8125 C 238.59375 250.019531 236.125 238.671875 236.125 226.269531 C 236.125 194.855469 259.519531 170.140625 286.105469 176.902344 C 301.941406 180.933594 314.632812 196.835938 317.679688 216.3125 C 320.210938 232.550781 318.007812 247.71875 310.363281 258.8125 C 319.898438 255.976562 328.953125 256.710938 340.46875 265.683594 C 351.792969 274.492188 360.296875 288.570312 361.078125 304.996094 C 362.460938 334.171875 341.957031 358.320312 318.460938 358.320312 C 310.996094 358.320312 302.019531 354.460938 295.777344 349.535156 "/>
<path style=" stroke:none;fill-rule:nonzero;fill:rgb(0%,0%,0%);fill-opacity:1;" d="M 157.023438 179.097656 C 157.023438 184.039062 160.292969 188.050781 164.324219 188.050781 C 168.355469 188.050781 171.625 184.039062 171.625 179.097656 L 171.625 89.546875 C 171.625 84.605469 168.355469 80.59375 164.324219 80.59375 C 160.292969 80.59375 157.023438 84.605469 157.023438 89.546875 Z M 157.023438 179.097656 "/>
<path style=" stroke:none;fill-rule:nonzero;fill:rgb(0%,0%,0%);fill-opacity:1;" d="M 206.441406 95.277344 C 209.027344 91.480469 208.605469 85.832031 205.507812 82.667969 C 202.410156 79.5 197.804688 80.019531 195.226562 83.816406 L 158.71875 137.546875 C 156.132812 141.34375 156.554688 146.992188 159.652344 150.152344 C 162.75 153.324219 167.355469 152.804688 169.933594 149.007812 Z M 206.441406 95.277344 "/>
<path style=" stroke:none;fill-rule:nonzero;fill:rgb(0%,0%,0%);fill-opacity:1;" d="M 185.003906 120.394531 C 182.769531 116.277344 178.234375 115.167969 174.875 117.917969 C 171.515625 120.65625 170.613281 126.21875 172.855469 130.335938 L 202.0625 184.066406 C 204.296875 188.1875 208.828125 189.296875 212.1875 186.546875 C 215.546875 183.804688 216.453125 178.246094 214.210938 174.125 Z M 185.003906 120.394531 "/>
<path style=" stroke:none;fill-rule:nonzero;fill:rgb(0%,0%,0%);fill-opacity:1;" d="M 397.980469 394.015625 C 397.980469 389.070312 394.710938 385.058594 390.679688 385.058594 C 386.648438 385.058594 383.378906 389.070312 383.378906 394.015625 L 383.378906 483.5625 C 383.378906 488.507812 386.648438 492.519531 390.679688 492.519531 C 394.710938 492.519531 397.980469 488.507812 397.980469 483.5625 Z M 397.980469 394.015625 "/>
<path style=" stroke:none;fill-rule:nonzero;fill:rgb(0%,0%,0%);fill-opacity:1;" d="M 348.5625 477.832031 C 345.976562 481.628906 346.402344 487.28125 349.496094 490.441406 C 352.59375 493.613281 357.199219 493.09375 359.777344 489.296875 L 396.285156 435.566406 C 398.871094 431.769531 398.449219 426.117188 395.351562 422.957031 C 392.253906 419.785156 387.648438 420.304688 385.070312 424.101562 Z M 348.5625 477.832031 "/>
<path style=" stroke:none;fill-rule:nonzero;fill:rgb(0%,0%,0%);fill-opacity:1;" d="M 370 452.707031 C 372.234375 456.824219 376.769531 457.9375 380.128906 455.1875 C 383.488281 452.445312 384.394531 446.882812 382.152344 442.765625 L 352.945312 389.035156 C 350.710938 384.917969 346.175781 383.808594 342.816406 386.554688 C 339.457031 389.296875 338.550781 394.859375 340.792969 398.976562 Z M 370 452.707031 "/>
</g>
</svg>
