<?xml version="1.0" encoding="iso-8859-1"?>
<!-- Generator: Adobe Illustrator 19.0.0, SVG Export Plug-In . SVG Version: 6.00 Build 0)  -->
<svg version="1.1" id="Layer_1" xmlns="http://www.w3.org/2000/svg" xmlns:xlink="http://www.w3.org/1999/xlink" x="0px" y="0px"
	 viewBox="0 0 512.853 512.853" style="enable-background:new 0 0 512.853 512.853;" xml:space="preserve">
<g transform="translate(1 1)">
	<path style="fill:#FCC309;" d="M442.307,340.76c17.067-30.72,26.453-65.707,26.453-102.4c0-117.76-95.573-213.333-213.333-213.333
		S42.093,120.6,42.093,238.36c0,36.693,9.387,71.68,26.453,102.4H442.307z"/>
	<path style="fill:#FD9808;" d="M380.867,340.76c23.04-28.16,36.693-64,36.693-102.4c0-89.6-72.533-162.133-162.133-162.133
		S93.293,148.76,93.293,238.36c0,38.4,13.653,74.24,36.693,102.4H380.867z"/>
	<path style="fill:#FFDD09;" d="M355.267,340.76c23.04-28.16,36.693-64,36.693-102.4c0-89.6-64-162.133-153.6-162.133
		c-66.56,0-145.067,72.533-145.067,162.133c0,38.4,13.653,74.24,36.693,102.4H355.267z"/>
	<g>
		<path style="fill:#54C9FD;" d="M306.627,178.627c0-28.16-23.04-51.2-51.2-51.2s-51.2,23.04-51.2,51.2s23.04,51.2,51.2,51.2
			S306.627,206.787,306.627,178.627"/>
		<path style="fill:#54C9FD;" d="M323.693,340.76H187.16v-42.667c0-37.547,30.72-68.267,68.267-68.267s68.267,30.72,68.267,68.267
			V340.76z"/>
	</g>
	<g>
		<polygon style="fill:#1CD759;" points="67.693,434.627 443.16,434.627 443.16,349.293 67.693,349.293 		"/>
		<polygon style="fill:#1CD759;" points="84.76,443.16 84.76,391.96 33.56,391.96 59.16,434.627 33.56,477.293 84.76,477.293 		"/>
	</g>
	<polygon style="fill:#FFFFFF;" points="33.56,391.96 7.96,391.96 42.093,434.627 7.96,477.293 33.56,477.293 59.16,434.627 	"/>
	<polygon style="fill:#1CD759;" points="426.093,443.16 426.093,391.96 477.293,391.96 451.693,434.627 477.293,477.293 
		426.093,477.293 	"/>
	<polygon style="fill:#15A143;" points="477.293,391.96 502.893,391.96 468.76,434.627 502.893,477.293 477.293,477.293 
		451.693,434.627 	"/>
	<path d="M443.16,451.693H67.693c-5.12,0-8.533-3.413-8.533-8.533v-102.4c0-5.12,3.413-8.533,8.533-8.533H443.16
		c5.12,0,8.533,3.413,8.533,8.533v102.4C451.693,448.28,448.28,451.693,443.16,451.693z M76.227,434.627h358.4v-85.333h-358.4
		V434.627z"/>
	<path d="M84.76,494.36H7.96c-3.413,0-5.973-1.707-7.68-4.267c-1.707-2.56-1.707-5.973,0-8.533l31.573-46.933l-30.72-46.08
		c-1.707-2.56-1.707-5.973,0-8.533c0.853-3.413,3.413-5.12,6.827-5.12h59.733c5.12,0,8.533,3.413,8.533,8.533v51.2h8.533
		c5.12,0,8.533,3.413,8.533,8.533v42.667C93.293,490.947,89.88,494.36,84.76,494.36z M24.173,477.293h52.053v-25.6h-8.533
		c-5.12,0-8.533-3.413-8.533-8.533v-51.2H24.173l25.6,37.547c1.707,2.56,1.707,6.827,0,9.387L24.173,477.293z"/>
	<path d="M502.893,494.36h-76.8c-5.12,0-8.533-3.413-8.533-8.533V443.16c0-5.12,3.413-8.533,8.533-8.533h8.533v-51.2
		c0-5.12,3.413-8.533,8.533-8.533h59.733c3.413,0,5.973,1.707,7.68,4.267s1.707,5.973,0,8.533L479,434.627l30.72,46.08
		c1.707,2.56,1.707,5.973,0,8.533C508.013,491.8,506.307,494.36,502.893,494.36z M434.627,477.293h52.053l-25.6-37.547
		c-1.707-2.56-1.707-6.827,0-9.387l25.6-37.547h-34.987v51.2c0,5.12-3.413,8.533-8.533,8.533h-8.533V477.293z"/>
	<path d="M187.16,383.427h-34.133c-5.12,0-8.533-3.413-8.533-8.533c0-5.12,3.413-8.533,8.533-8.533h34.133
		c5.12,0,8.533,3.413,8.533,8.533C195.693,380.013,192.28,383.427,187.16,383.427z"/>
	<path d="M272.493,383.427h-51.2c-5.12,0-8.533-3.413-8.533-8.533c0-5.12,3.413-8.533,8.533-8.533h51.2
		c5.12,0,8.533,3.413,8.533,8.533C281.027,380.013,277.613,383.427,272.493,383.427z"/>
	<path d="M229.827,417.56h-76.8c-5.12,0-8.533-3.413-8.533-8.533s3.413-8.533,8.533-8.533h76.8c5.12,0,8.533,3.413,8.533,8.533
		S234.947,417.56,229.827,417.56z"/>
	<path d="M357.827,417.56H340.76c-5.12,0-8.533-3.413-8.533-8.533s3.413-8.533,8.533-8.533h17.067c5.12,0,8.533,3.413,8.533,8.533
		S362.947,417.56,357.827,417.56z"/>
	<path d="M306.627,417.56H263.96c-5.12,0-8.533-3.413-8.533-8.533s3.413-8.533,8.533-8.533h42.667c5.12,0,8.533,3.413,8.533,8.533
		S311.747,417.56,306.627,417.56z"/>
	<path d="M357.827,383.427H315.16c-5.12,0-8.533-3.413-8.533-8.533c0-5.12,3.413-8.533,8.533-8.533h42.667
		c5.12,0,8.533,3.413,8.533,8.533C366.36,380.013,362.947,383.427,357.827,383.427z"/>
	<g>
		<path style="fill:#110E0E;" d="M442.307,349.293H68.547c-3.413,0-5.973-1.707-7.68-4.267C42.947,312.6,33.56,275.907,33.56,238.36
			c0-122.027,99.84-221.867,221.867-221.867s221.867,99.84,221.867,221.867c0,37.547-9.387,74.24-27.307,106.667
			C448.28,347.587,445.72,349.293,442.307,349.293z M73.667,332.227H438.04c14.507-29.013,23.04-61.44,23.04-93.867
			c-0.853-112.64-93.013-204.8-205.653-204.8s-204.8,92.16-204.8,204.8C50.627,271.64,58.307,304.067,73.667,332.227z"/>
		<path style="fill:#110E0E;" d="M380.867,349.293h-250.88c-2.56,0-5.12-0.853-6.827-3.413c-24.747-29.867-38.4-68.267-38.4-107.52
			c0-93.867,76.8-170.667,170.667-170.667s170.667,76.8,170.667,170.667c0,39.253-13.653,77.653-38.4,107.52
			C385.987,348.44,383.427,349.293,380.867,349.293z M134.253,332.227h243.2c20.48-26.453,32.427-59.733,32.427-93.867
			c0-84.48-69.12-153.6-153.6-153.6s-153.6,69.12-153.6,153.6C101.827,272.493,112.92,305.773,134.253,332.227z"/>
	</g>
	<path d="M255.427,238.36c-33.28,0-59.733-26.453-59.733-59.733s26.453-59.733,59.733-59.733s59.733,26.453,59.733,59.733
		S288.707,238.36,255.427,238.36z M255.427,135.96c-23.893,0-42.667,18.773-42.667,42.667s18.773,42.667,42.667,42.667
		s42.667-18.773,42.667-42.667S279.32,135.96,255.427,135.96z"/>
	<path d="M323.693,349.293H187.16c-5.12,0-8.533-3.413-8.533-8.533v-42.667c0-42.667,34.133-76.8,76.8-76.8s76.8,34.133,76.8,76.8
		v42.667C332.227,345.88,328.813,349.293,323.693,349.293z M195.693,332.227H315.16v-34.133c0-33.28-26.453-59.733-59.733-59.733
		s-59.733,26.453-59.733,59.733V332.227z"/>
</g>
<g>
</g>
<g>
</g>
<g>
</g>
<g>
</g>
<g>
</g>
<g>
</g>
<g>
</g>
<g>
</g>
<g>
</g>
<g>
</g>
<g>
</g>
<g>
</g>
<g>
</g>
<g>
</g>
<g>
</g>
</svg>
