<?xml version="1.0" ?><svg width="64px" height="64px" viewBox="0 0 64 64" xmlns="http://www.w3.org/2000/svg"><defs><style>.cls-1{fill:#7c6749;}.cls-2{fill:#a58961;}.cls-3{fill:#f5ebe0;}.cls-4{fill:#fcc062;}.cls-5,.cls-6{fill:none;stroke:#000;stroke-width:2px;}.cls-5{stroke-linejoin:round;}</style></defs><title/><g data-name="Layer 30" id="Layer_30"><path class="cls-1" d="M56,52h0a6,6,0,0,1,6,6v4a0,0,0,0,1,0,0H50a0,0,0,0,1,0,0V58A6,6,0,0,1,56,52Z"/><path class="cls-2" d="M54.5,52.2A6,6,0,0,0,50,58v4h9V58A6,6,0,0,0,54.5,52.2Z"/><path class="cls-1" d="M44,52h0a6,6,0,0,1,6,6v4a0,0,0,0,1,0,0H38a0,0,0,0,1,0,0V58A6,6,0,0,1,44,52Z"/><path class="cls-2" d="M42.5,52.2A6,6,0,0,0,38,58v4h9V58A6,6,0,0,0,42.5,52.2Z"/><path class="cls-1" d="M32,52h0a6,6,0,0,1,6,6v4a0,0,0,0,1,0,0H26a0,0,0,0,1,0,0V58A6,6,0,0,1,32,52Z"/><path class="cls-2" d="M30.5,52.2A6,6,0,0,0,26,58v4h9V58A6,6,0,0,0,30.5,52.2Z"/><path class="cls-1" d="M20,52h0a6,6,0,0,1,6,6v4a0,0,0,0,1,0,0H14a0,0,0,0,1,0,0V58A6,6,0,0,1,20,52Z"/><path class="cls-2" d="M18.5,52.2A6,6,0,0,0,14,58v4h9V58A6,6,0,0,0,18.5,52.2Z"/><path class="cls-1" d="M8,52H8a6,6,0,0,1,6,6v4a0,0,0,0,1,0,0H2a0,0,0,0,1,0,0V58A6,6,0,0,1,8,52Z"/><path class="cls-2" d="M6.5,52.2A6,6,0,0,0,2,58v4h9V58A6,6,0,0,0,6.5,52.2Z"/><circle class="cls-1" cx="56" cy="48" r="4"/><ellipse class="cls-2" cx="54.5" cy="48" rx="2.5" ry="3.7"/><circle class="cls-1" cx="44" cy="48" r="4"/><ellipse class="cls-2" cx="42.5" cy="48" rx="2.5" ry="3.7"/><circle class="cls-1" cx="32" cy="48" r="4"/><ellipse class="cls-2" cx="30.5" cy="48" rx="2.5" ry="3.7"/><circle class="cls-1" cx="20" cy="48" r="4"/><ellipse class="cls-2" cx="18.5" cy="48" rx="2.5" ry="3.7"/><circle class="cls-1" cx="8" cy="48" r="4"/><ellipse class="cls-2" cx="6.5" cy="48" rx="2.5" ry="3.7"/><circle class="cls-1" cx="32" cy="21" r="19"/><ellipse class="cls-2" cx="30.5" cy="21" rx="17.5" ry="18.92"/><path class="cls-3" d="M36,13h0a6.32,6.32,0,0,1-4-4h0a6.32,6.32,0,0,1-4,4h0a6.32,6.32,0,0,1,4,4h0a6.32,6.32,0,0,1,4-4Z"/><path class="cls-4" d="M39,23l1-10a2,2,0,0,1,2-2h0a2,2,0,0,1,2,2V26l-4,4v3H32V24l4-4h2l1,1v2l-3,3"/><path class="cls-4" d="M25,23,24,13a2,2,0,0,0-2-2h0a2,2,0,0,0-2,2V26l4,4v3h8V24l-4-4H26l-1,1v2l3,3"/><path class="cls-5" d="M56,52h0a6,6,0,0,1,6,6v4a0,0,0,0,1,0,0H50a0,0,0,0,1,0,0V58A6,6,0,0,1,56,52Z"/><circle class="cls-6" cx="56" cy="48" r="4"/><path class="cls-5" d="M44,52h0a6,6,0,0,1,6,6v4a0,0,0,0,1,0,0H38a0,0,0,0,1,0,0V58A6,6,0,0,1,44,52Z"/><circle class="cls-6" cx="44" cy="48" r="4"/><path class="cls-5" d="M32,52h0a6,6,0,0,1,6,6v4a0,0,0,0,1,0,0H26a0,0,0,0,1,0,0V58A6,6,0,0,1,32,52Z"/><circle class="cls-6" cx="32" cy="48" r="4"/><path class="cls-5" d="M20,52h0a6,6,0,0,1,6,6v4a0,0,0,0,1,0,0H14a0,0,0,0,1,0,0V58A6,6,0,0,1,20,52Z"/><circle class="cls-6" cx="20" cy="48" r="4"/><path class="cls-5" d="M8,52H8a6,6,0,0,1,6,6v4a0,0,0,0,1,0,0H2a0,0,0,0,1,0,0V58A6,6,0,0,1,8,52Z"/><circle class="cls-6" cx="8" cy="48" r="4"/><path class="cls-5" d="M25,23,24,13a2,2,0,0,0-2-2h0a2,2,0,0,0-2,2V26l4,4v3h8V24l-4-4H26l-1,1v2l3,3"/><path class="cls-5" d="M39,23l1-10a2,2,0,0,1,2-2h0a2,2,0,0,1,2,2V26l-4,4v3H32V24l4-4h2l1,1v2l-3,3"/><path class="cls-5" d="M36,13h0a6.32,6.32,0,0,1-4-4h0a6.32,6.32,0,0,1-4,4h0a6.32,6.32,0,0,1,4,4h0a6.32,6.32,0,0,1,4-4Z"/><circle class="cls-5" cx="32" cy="21" r="19"/></g></svg>