<?xml version="1.0" encoding="iso-8859-1"?>
<!-- Generator: Adobe Illustrator 19.0.0, SVG Export Plug-In . SVG Version: 6.00 Build 0)  -->
<svg version="1.1" id="Layer_1" xmlns="http://www.w3.org/2000/svg" xmlns:xlink="http://www.w3.org/1999/xlink" x="0px" y="0px"
	 viewBox="0 0 512.001 512.001" style="enable-background:new 0 0 512.001 512.001;" xml:space="preserve">
<path style="fill:#333E48;" d="M511.999,232.73c0-9.597-7.852-17.448-17.448-17.448l-48.576,0.001
	c-5.002-23.451-14.231-45.334-26.86-64.814l34.36-34.359c6.785-6.785,6.785-17.889,0-24.675l-32.91-32.908
	c-6.786-6.786-17.89-6.786-24.675,0l-34.358,34.358c-19.479-12.628-41.363-21.858-64.815-26.861V17.448
	C296.717,7.852,288.865,0,279.269,0h-46.537c-9.597,0-17.448,7.852-17.448,17.448v48.576c-23.452,5.003-45.335,14.232-64.815,26.861
	L116.11,58.526c-6.786-6.786-17.889-6.786-24.675,0L58.528,91.434c-6.785,6.785-6.785,17.89,0,24.675l34.358,34.358
	c-12.629,19.479-21.859,41.363-26.861,64.815H17.449c-9.597,0-17.448,7.852-17.447,17.448l0.001,46.538
	c0,9.597,7.852,17.448,17.448,17.448h48.574c5.002,23.451,14.231,45.334,26.86,64.814L58.526,395.89
	c-6.785,6.785-6.785,17.889,0,24.675l32.909,32.906c6.786,6.786,17.89,6.785,24.675,0l34.357-34.357
	c19.479,12.628,41.362,21.858,64.814,26.861v48.576c0,9.597,7.852,17.448,17.448,17.448l46.539-0.002
	c9.597,0,17.448-7.852,17.448-17.448v-48.575c23.451-5.002,45.334-14.231,64.813-26.86l34.359,34.359
	c6.785,6.785,17.889,6.785,24.675-0.001l32.908-32.909c6.785-6.786,6.785-17.892,0-24.677l-34.358-34.357
	c12.628-19.479,21.857-41.363,26.86-64.814l48.579,0.001c9.597,0,17.448-7.852,17.447-17.448V232.73z M256.004,339.7
	c-46.204,0-83.659-37.457-83.659-83.659s37.456-83.659,83.659-83.659s83.659,37.457,83.659,83.659
	C339.663,302.243,302.208,339.7,256.004,339.7z"/>
<g>
	<path style="fill:#00A8E1;" d="M256.004,147.707c-59.83,0-108.332,48.503-108.332,108.333c0,59.829,48.502,108.332,108.332,108.332
		s108.332-48.502,108.332-108.332C364.336,196.211,315.835,147.707,256.004,147.707z M256.004,325.741
		c-38.495,0-69.7-31.207-69.7-69.7s31.206-69.7,69.7-69.7s69.7,31.207,69.7,69.7S294.499,325.741,256.004,325.741z"/>
	<circle style="fill:#00A8E1;" cx="256.003" cy="104.783" r="9.306"/>
	<circle style="fill:#00A8E1;" cx="104.784" cy="255.991" r="9.306"/>
	<circle style="fill:#00A8E1;" cx="255.991" cy="407.21" r="9.306"/>
	<circle style="fill:#00A8E1;" cx="407.21" cy="256.002" r="9.306"/>
</g>
<g>
	<circle style="fill:#0071CE;" cx="149.079" cy="149.079" r="9.306"/>
	<circle style="fill:#0071CE;" cx="149.068" cy="362.926" r="9.306"/>
	<circle style="fill:#0071CE;" cx="362.926" cy="362.926" r="9.306"/>
	<circle style="fill:#0071CE;" cx="362.926" cy="149.079" r="9.306"/>
</g>
<g>
</g>
<g>
</g>
<g>
</g>
<g>
</g>
<g>
</g>
<g>
</g>
<g>
</g>
<g>
</g>
<g>
</g>
<g>
</g>
<g>
</g>
<g>
</g>
<g>
</g>
<g>
</g>
<g>
</g>
</svg>
