<?xml version="1.0" encoding="iso-8859-1"?>
<!-- Generator: Adobe Illustrator 19.0.0, SVG Export Plug-In . SVG Version: 6.00 Build 0)  -->
<svg version="1.1" id="Layer_1" xmlns="http://www.w3.org/2000/svg" xmlns:xlink="http://www.w3.org/1999/xlink" x="0px" y="0px"
	 viewBox="0 0 512 512" style="enable-background:new 0 0 512 512;" xml:space="preserve">
<circle style="fill:#F4A026;" cx="256" cy="256" r="243.81"/>
<path style="fill:#EFEFEF;" d="M256,451.048c-107.549,0-195.048-87.498-195.048-195.048S148.451,60.952,256,60.952
	S451.048,148.451,451.048,256S363.549,451.048,256,451.048z"/>
<g>
	<rect x="225.524" y="225.524" style="fill:#F4A026;" width="60.952" height="170.667"/>
	<circle style="fill:#F4A026;" cx="256" cy="146.286" r="30.476"/>
</g>
<path d="M256,0C114.842,0,0,114.842,0,256s114.842,256,256,256s256-114.842,256-256S397.158,0,256,0z M256,487.619
	C128.284,487.619,24.381,383.716,24.381,256S128.284,24.381,256,24.381S487.619,128.284,487.619,256S383.716,487.619,256,487.619z"
	/>
<path d="M256,48.762C141.729,48.762,48.762,141.729,48.762,256S141.729,463.238,256,463.238S463.238,370.271,463.238,256
	S370.271,48.762,256,48.762z M256,438.857c-100.827,0-182.857-82.03-182.857-182.857S155.173,73.143,256,73.143
	S438.857,155.173,438.857,256S356.827,438.857,256,438.857z"/>
<path d="M286.476,213.333h-60.952c-6.733,0-12.19,5.458-12.19,12.19V396.19c0,6.733,5.458,12.19,12.19,12.19h60.952
	c6.733,0,12.19-5.458,12.19-12.19V225.524C298.667,218.791,293.209,213.333,286.476,213.333z M274.286,384h-36.571V237.714h36.571
	V384z"/>
<path d="M256,103.619c-23.526,0-42.667,19.14-42.667,42.667s19.14,42.667,42.667,42.667s42.667-19.14,42.667-42.667
	S279.526,103.619,256,103.619z M256,164.571c-10.083,0-18.286-8.203-18.286-18.286S245.917,128,256,128s18.286,8.203,18.286,18.286
	S266.083,164.571,256,164.571z"/>
<g>
</g>
<g>
</g>
<g>
</g>
<g>
</g>
<g>
</g>
<g>
</g>
<g>
</g>
<g>
</g>
<g>
</g>
<g>
</g>
<g>
</g>
<g>
</g>
<g>
</g>
<g>
</g>
<g>
</g>
</svg>
