<?xml version="1.0" encoding="iso-8859-1"?>
<!-- Generator: Adobe Illustrator 19.0.0, SVG Export Plug-In . SVG Version: 6.00 Build 0)  -->
<svg version="1.1" id="Layer_1" xmlns="http://www.w3.org/2000/svg" xmlns:xlink="http://www.w3.org/1999/xlink" x="0px" y="0px"
	 viewBox="0 0 502 502" style="enable-background:new 0 0 502 502;" xml:space="preserve">
<g>
	<path style="fill:#CCCCCC;" d="M458.333,212.323h-1.54H75.333C39.251,212.323,10,241.574,10,277.657v58.667h48.013
		c-0.002-0.167-0.013-0.332-0.013-0.5c0-30.1,24.4-54.5,54.5-54.5s54.5,24.4,54.5,54.5c0,0.168-0.011,0.333-0.013,0.5h170.025
		c-0.002-0.167-0.013-0.332-0.013-0.5c0-30.1,24.4-54.5,54.5-54.5s54.5,24.4,54.5,54.5c0,0.168-0.011,0.333-0.013,0.5H492V247.53
		v-1.54C492,227.396,476.927,212.323,458.333,212.323z"/>
	<path style="fill:#29ABE2;" d="M281.246,111.677H174.753c-20.576,0-34.753,9.313-47.898,30.647l-39.855,70h302l-80.714-87.422
		C298.667,115.657,291.817,111.677,281.246,111.677z"/>
	<path style="fill:#333333;" d="M112.5,281.323c-30.1,0-54.5,24.4-54.5,54.5c0,0.168,0.011,0.333,0.013,0.5
		c0.27,29.868,24.555,54,54.487,54s54.218-24.132,54.487-54c0.002-0.167,0.013-0.332,0.013-0.5
		C167,305.724,142.6,281.323,112.5,281.323z"/>
	<path style="fill:#333333;" d="M391.5,281.323c-30.1,0-54.5,24.4-54.5,54.5c0,0.168,0.011,0.333,0.013,0.5
		c0.27,29.868,24.555,54,54.487,54s54.218-24.132,54.487-54c0.002-0.167,0.013-0.332,0.013-0.5
		C446,305.724,421.6,281.323,391.5,281.323z"/>
	<path style="fill:#CCCCCC;" d="M112.5,314.023c-12.04,0-21.8,9.76-21.8,21.8c0,0.067,0.004,0.133,0.005,0.2
		c0.108,11.947,9.822,21.6,21.795,21.6s21.687-9.653,21.795-21.6c0.001-0.067,0.005-0.133,0.005-0.2
		C134.3,323.783,124.54,314.023,112.5,314.023z"/>
	<path style="fill:#CCCCCC;" d="M391.5,314.023c-12.04,0-21.8,9.76-21.8,21.8c0,0.067,0.004,0.133,0.005,0.2
		c0.108,11.947,9.822,21.6,21.795,21.6s21.687-9.653,21.795-21.6c0.001-0.067,0.005-0.133,0.005-0.2
		C413.3,323.783,403.54,314.023,391.5,314.023z"/>
	<g>
		<path d="M458.333,202.323h-64.956l-77.744-84.206c-0.135-0.146-0.274-0.289-0.418-0.426
			c-10.288-9.887-19.559-16.015-33.969-16.015H174.753c-23.929,0-41.327,10.918-56.412,35.401c-0.061,0.098-0.119,0.197-0.176,0.298
			l-36.979,64.948h-5.853C33.794,202.323,0,236.118,0,277.657v58.667c0,5.523,4.477,10,10,10h38.874
			c5.052,30.55,31.756,54,63.626,54c31.88,0,58.591-23.464,63.631-54h151.743c5.052,30.55,31.756,54,63.626,54
			c31.88,0,58.591-23.464,63.631-54H492c5.523,0,10-4.477,10-10V245.99C502,221.912,482.411,202.323,458.333,202.323z
			 M301.145,131.908l65.012,70.415H277v-25.646c0-5.523-4.477-10-10-10s-10,4.477-10,10v25.646h-80v-80.646h104.246
			C288.363,121.677,292.858,123.978,301.145,131.908z M135.458,147.425c6.882-11.137,13.614-18.184,21.542-22.038v76.936h-52.799
			L135.458,147.425z M112.5,380.323c-24.311,0-44.268-19.779-44.488-44.087c-0.001-0.155-0.005-0.31-0.012-0.501
			c0.049-24.497,19.993-44.412,44.5-44.412s44.451,19.915,44.5,44.411c-0.001,0.042-0.002,0.084-0.003,0.125
			c-0.004,0.125-0.008,0.249-0.009,0.373C156.768,360.544,136.811,380.323,112.5,380.323z M391.5,380.323
			c-24.311,0-44.268-19.779-44.488-44.087c-0.001-0.155-0.005-0.31-0.012-0.501c0.049-24.497,19.993-44.412,44.5-44.412
			s44.451,19.915,44.5,44.411c-0.001,0.042-0.002,0.084-0.003,0.125c-0.004,0.125-0.008,0.249-0.009,0.373
			C435.768,360.544,415.811,380.323,391.5,380.323z M455.302,326.323c-4.606-31.079-31.462-55-63.802-55s-59.196,23.921-63.802,55
			H176.302c-4.606-31.079-31.462-55-63.802-55s-59.196,23.921-63.802,55H20v-17h9c5.523,0,10-4.477,10-10s-4.477-10-10-10h-9
			v-11.667c0-30.511,24.822-55.333,55.333-55.333H87h302h69.333c11.803,0,21.614,8.686,23.381,20H449c-5.523,0-10,4.477-10,10
			c0,5.523,4.477,10,10,10h33v27h-7c-5.523,0-10,4.477-10,10s4.477,10,10,10h7v17H455.302z"/>
		<path d="M267,156.323c5.523,0,10-4.477,10-10v-3c0-5.523-4.477-10-10-10s-10,4.477-10,10v3
			C257,151.846,261.477,156.323,267,156.323z"/>
		<path d="M306,289.323H200c-5.523,0-10,4.477-10,10s4.477,10,10,10h106c5.523,0,10-4.477,10-10S311.523,289.323,306,289.323z"/>
		<path d="M112.5,304.023c-17.535,0-31.8,14.265-31.8,31.8c0,0.127,0.002,0.254,0.006,0.386
			c0.208,17.331,14.451,31.414,31.793,31.414c17.335,0,31.573-14.071,31.793-31.409c0.004-0.13,0.006-0.26,0.006-0.391
			C144.3,318.289,130.035,304.023,112.5,304.023z M124.295,335.933c-0.058,6.446-5.35,11.69-11.795,11.69
			s-11.737-5.244-11.795-11.672c0-0.052-0.002-0.142-0.004-0.225c0.053-6.462,5.325-11.703,11.799-11.703
			c6.473,0,11.745,5.239,11.799,11.699C124.297,335.8,124.296,335.883,124.295,335.933z"/>
		<path d="M391.5,304.023c-17.535,0-31.8,14.265-31.8,31.8c0,0.127,0.002,0.254,0.006,0.386
			c0.208,17.331,14.451,31.414,31.793,31.414c17.335,0,31.573-14.071,31.793-31.409c0.004-0.13,0.006-0.26,0.006-0.391
			C423.3,318.289,409.035,304.023,391.5,304.023z M403.295,335.933c-0.058,6.446-5.35,11.69-11.795,11.69
			s-11.737-5.244-11.795-11.672c0-0.052-0.002-0.142-0.004-0.225c0.053-6.462,5.325-11.703,11.799-11.703
			c6.473,0,11.745,5.239,11.799,11.699C403.297,335.8,403.296,335.883,403.295,335.933z"/>
	</g>
</g>
<g>
</g>
<g>
</g>
<g>
</g>
<g>
</g>
<g>
</g>
<g>
</g>
<g>
</g>
<g>
</g>
<g>
</g>
<g>
</g>
<g>
</g>
<g>
</g>
<g>
</g>
<g>
</g>
<g>
</g>
</svg>
