<?xml version="1.0" encoding="iso-8859-1"?>
<!-- Generator: Adobe Illustrator 19.0.0, SVG Export Plug-In . SVG Version: 6.00 Build 0)  -->
<svg version="1.1" id="Layer_1" xmlns="http://www.w3.org/2000/svg" xmlns:xlink="http://www.w3.org/1999/xlink" x="0px" y="0px"
	 viewBox="0 0 392.598 392.598" style="enable-background:new 0 0 392.598 392.598;" xml:space="preserve">
<g>
	<path style="fill:#FFFFFF;" d="M288,205.285c-45.576,0-82.747,37.107-82.747,82.747c0,45.576,37.107,82.747,82.747,82.747
		s82.747-37.107,82.747-82.747C370.747,242.457,333.576,205.285,288,205.285z"/>
	<path style="fill:#FFFFFF;" d="M227.232,203.087V31.58c0-5.301-4.331-9.632-9.632-9.632H85.592v52.945
		c0,6.012-4.848,10.925-10.925,10.925H21.786v199.693c0,5.301,4.331,9.632,9.632,9.632h152.307
		c-0.129-2.327-0.388-4.655-0.388-7.046C183.467,252.994,200.727,222.093,227.232,203.087z"/>
</g>
<path style="fill:#FFC10D;" d="M88.242,43.604L43.572,88.275v184.889h118.82c3.62-31.418,18.941-60.186,42.99-80.808V43.604H88.242z
	"/>
<path style="fill:#56ACE0;" d="M288,348.929c-33.616,0-60.962-27.345-60.962-60.962s27.345-60.962,60.962-60.962
	s60.962,27.345,60.962,60.962S321.616,348.929,288,348.929z"/>
<g>
	<path style="fill:#194F82;" d="M182.691,82.457h-61.802c-6.012,0-10.925-4.848-10.925-10.925c0-6.012,4.848-10.925,10.925-10.925
		h61.802c6.012,0,10.925,4.848,10.925,10.925C193.551,77.608,188.703,82.457,182.691,82.457z"/>
	<path style="fill:#194F82;" d="M182.691,140.444H66.392c-6.012,0-10.925-4.848-10.925-10.925c0-6.012,4.848-10.925,10.925-10.925
		h116.299c6.012,0,10.925,4.848,10.925,10.925C193.551,135.531,188.703,140.444,182.691,140.444z"/>
	<path style="fill:#194F82;" d="M182.691,197.915H66.392c-6.012,0-10.925-4.848-10.925-10.925s4.848-10.925,10.925-10.925h116.299
		c6.012,0,10.925,4.848,10.925,10.925S188.703,197.915,182.691,197.915z"/>
	<path style="fill:#194F82;" d="M154.246,255.386H66.392c-6.012,0-10.925-4.848-10.925-10.925c0-6.012,4.848-10.925,10.925-10.925
		h87.855c6.012,0,10.925,4.848,10.925,10.925C165.107,250.537,160.259,255.386,154.246,255.386z"/>
	<path style="fill:#194F82;" d="M362.99,215.37l20.687-20.558c4.267-4.267,4.331-11.119,0.065-15.451
		c-4.267-4.267-11.119-4.331-15.451-0.065l-22.044,21.915c-13.834-9.374-29.996-15.386-47.451-17.131v-14.739h4.655
		c6.012,0,10.925-4.848,10.925-10.925c0-6.012-4.848-10.925-10.925-10.925h-31.16c-6.012,0-10.925,4.848-10.925,10.925
		c0,6.012,4.848,10.925,10.925,10.925h4.655v14.675c-9.826,1.034-19.265,3.491-28.057,7.046V31.58
		c0.129-17.39-13.964-31.547-31.354-31.547H83.2c-8.339,0-16.291,3.232-22.238,9.18L9.18,60.994C3.232,66.941,0,74.893,0,83.232
		v202.085c0,17.39,14.158,31.547,31.547,31.547h156.121c12.606,43.636,52.752,75.701,100.396,75.701
		c57.665,0,104.533-46.933,104.533-104.533C392.533,259.846,381.285,234.246,362.99,215.37z M63.806,37.269v26.57h-26.57
		L63.806,37.269z M31.547,295.079c-5.301,0-9.632-4.331-9.632-9.632V85.689h52.945c6.012,0,10.925-4.848,10.925-10.925V21.818
		h131.879c5.301,0,9.632,4.331,9.632,9.632v171.572c-26.505,19.006-43.83,49.907-43.83,84.945c0,2.392,0.259,4.719,0.388,7.046
		H31.547V295.079z M288,370.78c-45.576,0-82.747-37.107-82.747-82.747c0-45.576,37.107-82.747,82.747-82.747
		s82.747,37.107,82.747,82.747C370.747,333.608,333.576,370.78,288,370.78z"/>
</g>
<polygon style="fill:#56ACE0;" points="37.236,63.838 63.806,63.838 63.806,37.269 "/>
<path style="fill:#194F82;" d="M288,217.503c-6.012,0-10.925,4.848-10.925,10.925v59.669c0,6.012,4.848,10.925,10.925,10.925
	c6.012,0,10.925-4.848,10.925-10.925v-59.669C298.861,222.352,294.012,217.503,288,217.503z"/>
<g>
</g>
<g>
</g>
<g>
</g>
<g>
</g>
<g>
</g>
<g>
</g>
<g>
</g>
<g>
</g>
<g>
</g>
<g>
</g>
<g>
</g>
<g>
</g>
<g>
</g>
<g>
</g>
<g>
</g>
</svg>
