<?xml version="1.0" ?><svg width="64px" height="64px" viewBox="0 0 64 64" xmlns="http://www.w3.org/2000/svg"><g id="a"/><g id="b"/><g id="c"/><g id="d"/><g id="e"/><g id="f"/><g id="g"/><g id="h"/><g id="i"/><g id="j"/><g id="k"/><g id="l"/><g id="m"/><g id="n"/><g id="o"/><g id="p"/><g id="q"/><g id="r"/><g id="s"/><g id="t"/><g id="u"/><g id="v"/><g id="w"/><g id="x"/><g id="y"/><g id="a`"/><g id="aa"/><g id="ab"><path d="M48.35,7.19V56.81h6.69c2.19,0,3.95-1.76,3.95-3.96V11.14c0-2.19-1.76-3.96-3.95-3.96h-6.69Z" fill="#8fd7f8" fill-rule="evenodd"/><path d="M41.66,7.19V56.81h6.69c2.19,0,3.96-1.76,3.96-3.96V11.14c0-2.19-1.77-3.96-3.96-3.96h-6.69Z" fill="#f0f3f5" fill-rule="evenodd"/><path d="M34.97,7.19V56.81h6.69c2.19,0,3.95-1.76,3.95-3.96V11.14c0-2.19-1.76-3.96-3.95-3.96h-6.69Z" fill="#8fd7f8" fill-rule="evenodd"/><path d="M8.95,7.19h26.01c2.18,0,3.95,1.77,3.95,3.95V52.86c0,2.18-1.77,3.96-3.96,3.96H8.95c-2.18,0-3.95-1.77-3.95-3.95V11.14c0-2.18,1.77-3.95,3.95-3.95Z" fill="#f0f3f5"/><path d="M33.93,32c0,6.61-5.36,11.97-11.97,11.97s-11.97-5.36-11.97-11.97,5.36-11.97,11.97-11.97,11.97,5.36,11.97,11.97Z" fill="#8996a8" fill-rule="evenodd"/><path d="M21.96,25.82c-.29,0-.57,.11-.79,.33l-3.33,3.33c-1.14,1.14-1.14,2.98,0,4.12,.67,.67,1.57,.94,2.43,.83l-.35,1.71c-.23,1.11,.91,2.04,2.04,2.04s2.26-.93,2.04-2.04l-.35-1.71c.86,.11,1.77-.16,2.43-.83,1.14-1.14,1.14-2.98,0-4.12l-3.33-3.33c-.22-.22-.51-.33-.79-.33Z" fill="#e8a3c1" fill-rule="evenodd"/><path d="M21.96,20.03c-.6,0-1.2,.05-1.8,.14,5.83,.9,10.14,5.92,10.14,11.83,0,5.91-4.32,10.93-10.15,11.82,.6,.1,1.21,.14,1.82,.15,6.61,0,11.97-5.36,11.97-11.97,0-6.61-5.36-11.97-11.97-11.97Z" fill="#7a8594" fill-rule="evenodd"/><path d="M50.97,7.19c2.19,0,3.95,1.76,3.95,3.96V52.86c0,2.19-1.76,3.96-3.95,3.96h4.07c2.19,0,3.95-1.76,3.95-3.96V11.14c0-2.19-1.76-3.96-3.95-3.96h-4.07Z" fill="#75cdf8" fill-rule="evenodd"/><path d="M44.28,7.19c2.19,0,3.95,1.76,3.95,3.96V52.86c0,2.19-1.76,3.96-3.95,3.96h4.07c2.19,0,3.96-1.76,3.96-3.96V11.14c0-2.19-1.76-3.96-3.96-3.96h-4.07Z" fill="#e4ecf0" fill-rule="evenodd"/><path d="M37.58,7.19c2.19,0,3.95,1.76,3.95,3.96V52.86c0,2.19-1.76,3.96-3.95,3.96h4.07c2.19,0,3.96-1.76,3.96-3.96V11.14c0-2.19-1.76-3.96-3.96-3.96h-4.07Z" fill="#75cdf8" fill-rule="evenodd"/><path d="M30.89,7.19c2.19,0,3.95,1.76,3.95,3.96V52.86c0,2.19-1.76,3.96-3.95,3.96h4.07c2.19,0,3.95-1.76,3.95-3.96V11.14c0-2.19-1.76-3.96-3.95-3.96h-4.07Z" fill="#e4ecf0" fill-rule="evenodd"/><path d="M55.04,6.19H8.96c-2.73,0-4.96,2.22-4.96,4.95V52.86c0,2.73,2.22,4.96,4.96,4.96H55.04c2.73,0,4.96-2.22,4.96-4.96V11.14c0-2.73-2.22-4.95-4.96-4.95Zm-3.74,4.95V52.86c0,1.63-1.33,2.96-2.96,2.96h-2.74c.62-.83,1-1.84,1-2.96V11.14c0-1.11-.38-2.13-1-2.95h2.74c1.63,0,2.96,1.33,2.96,2.95Zm-12.39,44.67c.62-.83,1-1.84,1-2.96V11.14c0-1.11-.38-2.13-1-2.95h2.74c1.63,0,2.96,1.33,2.96,2.95V52.86c0,1.63-1.33,2.96-2.96,2.96h-2.74Zm-29.96,0c-1.63,0-2.96-1.33-2.96-2.96V11.14c0-1.63,1.33-2.95,2.96-2.95h26.01c1.63,0,2.95,1.33,2.95,2.95V52.86c0,1.63-1.33,2.96-2.95,2.96H8.96Zm49.04-2.96c0,1.63-1.33,2.96-2.96,2.96h-2.74c.62-.83,1-1.84,1-2.96V11.14c0-1.11-.38-2.13-1-2.95h2.74c1.63,0,2.96,1.33,2.96,2.95V52.86Z"/><path d="M23.46,25.44c-.4-.4-.93-.62-1.5-.62h0c-.56,0-1.1,.22-1.5,.62l-3.33,3.33c-1.53,1.53-1.53,4.01,0,5.53,.54,.54,1.21,.9,1.93,1.06l-.12,.57c-.15,.73,.04,1.47,.54,2.08,.59,.72,1.54,1.16,2.48,1.16s1.89-.44,2.48-1.16c.5-.61,.69-1.35,.54-2.08l-.12-.57c.72-.16,1.39-.52,1.93-1.06,1.53-1.53,1.53-4.01,0-5.53l-3.33-3.33Zm-1.41,1.41l3.33,3.33c.75,.75,.75,1.96,0,2.71-.42,.42-1.01,.62-1.6,.55-.32-.04-.64,.07-.86,.31-.22,.24-.31,.56-.25,.88l.35,1.71c.01,.05,.04,.2-.13,.41-.42,.51-1.44,.51-1.86,0-.17-.21-.14-.36-.13-.41l.35-1.71c.06-.32-.03-.64-.25-.88-.19-.21-.46-.32-.73-.32-.04,0-.08,0-.13,0-.59,.08-1.18-.12-1.6-.55-.75-.75-.74-1.96,0-2.71l3.33-3.33s.05-.04,.09-.04l.08,.03Z"/><path d="M10.2,12.37c.21-.21,.33-.5,.33-.79s-.12-.58-.33-.8c-.21-.21-.5-.33-.79-.33s-.58,.12-.79,.33c-.21,.21-.33,.5-.33,.8s.12,.58,.33,.79c.21,.21,.5,.33,.79,.33s.58-.12,.79-.33Z"/><path d="M14.18,12.37c.21-.21,.33-.5,.33-.79s-.12-.58-.33-.8c-.21-.21-.5-.33-.79-.33s-.58,.12-.79,.33-.33,.5-.33,.8,.12,.58,.33,.79c.43,.43,1.15,.43,1.59,0Z"/><path d="M29.74,51.63c-.21,.21-.33,.5-.33,.79s.12,.58,.33,.79c.21,.21,.5,.33,.79,.33s.58-.12,.79-.33,.33-.5,.33-.79-.12-.58-.33-.79c-.44-.44-1.15-.44-1.59,0Z"/><path d="M35.64,52.43c0-.3-.12-.58-.33-.79-.21-.21-.5-.33-.79-.33s-.58,.12-.79,.33c-.21,.21-.33,.5-.33,.79s.12,.58,.33,.79c.44,.44,1.15,.44,1.59,0,.21-.21,.33-.5,.33-.79Z"/><path d="M34.93,32c0-7.15-5.82-12.97-12.97-12.97s-12.97,5.82-12.97,12.97,5.82,12.97,12.97,12.97,12.97-5.82,12.97-12.97Zm-12.97,10.97c-6.05,0-10.97-4.92-10.97-10.97s4.92-10.97,10.97-10.97,10.97,4.92,10.97,10.97-4.92,10.97-10.97,10.97Z"/></g><g id="ac"/><g id="ad"/><g id="ae"/><g id="af"/><g id="ag"/><g id="ah"/><g id="ai"/><g id="aj"/><g id="ak"/><g id="al"/><g id="am"/><g id="an"/><g id="ao"/><g id="ap"/><g id="aq"/><g id="ar"/><g id="as"/><g id="at"/><g id="au"/><g id="av"/><g id="aw"/><g id="ax"/></svg>